<svg xmlns="http://www.w3.org/2000/svg" width="65.43" height="65.43" viewBox="0 0 65.43 65.43">
  <path id="Path_2783" data-name="Path 2783" d="M10.13,22.585H1.917A1.917,1.917,0,0,0,0,24.5V45.034a1.917,1.917,0,0,0,1.917,1.917H10.13a1.917,1.917,0,0,0,1.917-1.917V24.5A1.917,1.917,0,0,0,10.13,22.585ZM46.061,44.762a1.917,1.917,0,0,0,1.917-1.917V38.6h.136a1.917,1.917,0,0,0,0-3.834h-.136v-10.4a1.917,1.917,0,0,0-3.272-1.356l-8.822,8.818a6.937,6.937,0,0,0-2.005,4.857A1.917,1.917,0,0,0,35.795,38.6h8.349v4.243A1.917,1.917,0,0,0,46.061,44.762ZM38.39,34.768a3.024,3.024,0,0,1,.208-.232l5.547-5.544v5.776Zm-7.864,8.077a1.917,1.917,0,0,0-1.917-1.917H20.937a2.974,2.974,0,0,1,.208-.232l8.819-8.815a1.917,1.917,0,0,0,.562-1.356V29.5a7.05,7.05,0,0,0-14.1,0v0a1.917,1.917,0,0,0,3.834,0,3.216,3.216,0,0,1,6.432,0v.232l-8.261,8.257a6.937,6.937,0,0,0-2.005,4.856,1.917,1.917,0,0,0,1.917,1.917H28.609a1.917,1.917,0,0,0,1.917-1.917Zm2.19-39.011a20.706,20.706,0,0,1,20.02,15.524,5.713,5.713,0,0,1,2.565-.606h1.234a24.5,24.5,0,0,0-47.638,0H10.13a5.714,5.714,0,0,1,2.565.606A20.705,20.705,0,0,1,32.715,3.834ZM52.361,49.974A12.474,12.474,0,0,1,40.928,57.49h-2.5a6.023,6.023,0,1,0,0,3.834h2.5a16.316,16.316,0,0,0,15.24-10.539H55.3a5.715,5.715,0,0,1-2.939-.811ZM63.513,22.585H55.3A1.917,1.917,0,0,0,53.383,24.5V45.034A1.917,1.917,0,0,0,55.3,46.951h8.213a1.917,1.917,0,0,0,1.917-1.917V24.5A1.917,1.917,0,0,0,63.513,22.585Z" fill="#3e7765"/>
</svg>
