<svg id="icon" xmlns="http://www.w3.org/2000/svg" width="64" height="64" viewBox="0 0 64 64">
  <path id="Path_72" data-name="Path 72" d="M131.711,318.06q-.089-.15-.192-.29a4.157,4.157,0,0,0-5.8-.958l-11.925,8.515H101.334a1.067,1.067,0,1,1,0-2.133h6.933A3.737,3.737,0,0,0,112,319.461c0-.012,0-.11,0-.121a3.746,3.746,0,0,0-3.816-3.613H94.306a5.353,5.353,0,0,0-3.372,1.238l-5.216,4.341a1.07,1.07,0,0,0-.384.82v12.8a1.066,1.066,0,0,0,1.067,1.067h26.465a7.484,7.484,0,0,0,4.753-1.716l12.931-10.685A4.192,4.192,0,0,0,131.711,318.06Zm-2.459,3.842L116.26,332.634a5.353,5.353,0,0,1-3.4,1.227h-25.4V322.627L92.3,318.6a3.209,3.209,0,0,1,2.015-.743h13.9a1.63,1.63,0,0,1,1.651,1.6,1.6,1.6,0,0,1-1.6,1.6h-6.933a3.2,3.2,0,1,0,0,6.4h12.8a1.081,1.081,0,0,0,.622-.2l12.2-8.716a2.024,2.024,0,0,1,2.832.473c.032.044.061.089.089.134A2.071,2.071,0,0,1,129.253,321.9Z" transform="translate(-74.667 -276.261)" fill="#fff"/>
  <path id="Path_73" data-name="Path 73" d="M11.7,349.867H0V352H10.635v16H0v2.133H11.7a1.066,1.066,0,0,0,1.067-1.067V350.934a1.066,1.066,0,0,0-1.067-1.067Z" transform="translate(0 -306.134)" fill="#fff"/>
  <path id="Path_74" data-name="Path 74" d="M5.333,284.8a3.2,3.2,0,1,0,3.2,3.2A3.2,3.2,0,0,0,5.333,284.8Zm0,4.267A1.067,1.067,0,1,1,6.4,288,1.068,1.068,0,0,1,5.333,289.066Zm57.6-24.533H1.067A1.066,1.066,0,0,0,0,265.6a7.476,7.476,0,0,0,7.467,7.467H56.533A7.476,7.476,0,0,0,64,265.6a1.065,1.065,0,0,0-1.066-1.067Zm-6.4,6.4H7.467a5.342,5.342,0,0,1-5.226-4.267H61.759a5.341,5.341,0,0,1-5.225,4.267Z" transform="translate(0 -231.466)" fill="#fff"/>
  <path id="Path_75" data-name="Path 75" d="M61.866,42.667A27.765,27.765,0,0,0,34.133,70.4v1.067A1.066,1.066,0,0,0,35.2,72.534H88.533A1.066,1.066,0,0,0,89.6,71.467V70.4A27.764,27.764,0,0,0,61.866,42.667ZM36.266,70.4a25.6,25.6,0,0,1,51.2,0Z" transform="translate(-29.866 -37.334)" fill="#fff"/>
  <path id="Path_76" data-name="Path 76" d="M101.263,17.5a23.845,23.845,0,0,0-2.054,2.668l1.778,1.179a21.8,21.8,0,0,1,1.871-2.43Zm17.544-7.9a23.382,23.382,0,0,0-16.059,6.37l1.461,1.554a21.254,21.254,0,0,1,14.6-5.791Zm-3.2-9.6h6.4V2.133h-6.4Z" transform="translate(-86.808)" fill="#fff"/>
  <path id="Path_77" data-name="Path 77" d="M247.467,8.533H249.6v5.333h-2.133Z" transform="translate(-216.534 -7.466)" fill="#fff"/>
</svg>
