<svg id="icon" xmlns="http://www.w3.org/2000/svg" width="66.125" height="68.955" viewBox="0 0 66.125 68.955">
  <path id="Path_71" data-name="Path 71" d="M43.424,25.323a1.01,1.01,0,0,0,1.01-1.01v-2.08a1.01,1.01,0,1,0-2.02,0v2.08A1.01,1.01,0,0,0,43.424,25.323ZM37.531,57.709a1.01,1.01,0,1,0,1.01,1.01A1.01,1.01,0,0,0,37.531,57.709Zm36.805-5.267h-.488a14.636,14.636,0,0,0-2.1-6.7,1.01,1.01,0,1,0-1.726,1.05,12.618,12.618,0,0,1,1.8,5.646H46.581A12.672,12.672,0,0,1,59.2,40.705a12.517,12.517,0,0,1,7.9,2.769A1.01,1.01,0,1,0,68.367,41.9a14.678,14.678,0,0,0-5.144-2.645,4.128,4.128,0,1,0-8.041-.007,14.607,14.607,0,0,0-4,1.834l-5.189-1.742a1.783,1.783,0,0,1-1.219-1.69V36.8A13.9,13.9,0,0,0,51.46,24.935V23.8a3.5,3.5,0,0,0,0-7V6.969A6.984,6.984,0,0,0,44.477,0H30.586A6.984,6.984,0,0,0,23.6,6.969V16.8a3.5,3.5,0,0,0,0,7v1.135A13.9,13.9,0,0,0,30.29,36.8v.843a1.783,1.783,0,0,1-1.219,1.69L16.915,43.419a9.384,9.384,0,0,0-6.41,8.9V67.945a1.01,1.01,0,0,0,2.02,0V52.32a7.365,7.365,0,0,1,5.033-6.986l1.951-.655a11.9,11.9,0,0,1,1.976,7.244,11.707,11.707,0,0,1-1.963,5.726,3.694,3.694,0,0,0-.631,2.068v8.227a1.01,1.01,0,0,0,2.02,0V59.717a1.681,1.681,0,0,1,.289-.943,13.733,13.733,0,0,0,2.3-6.721,13.873,13.873,0,0,0-2.022-8.036l2.088-.7A44.643,44.643,0,0,0,36.521,63.422v4.523a1.01,1.01,0,0,0,2.02,0V63.421a44.864,44.864,0,0,0,4-4.045,2.282,2.282,0,0,0,1.53.59h9.06v.547a3.326,3.326,0,0,0,1.023,2.4v5.032a1.01,1.01,0,0,0,2.02,0v-4.11c.441.043,6.171-.006,6.365-.041v4.151a1.01,1.01,0,0,0,2.02,0V62.578a3.318,3.318,0,0,0,.719-2.065v-.547h9.06a2.3,2.3,0,0,0,2.294-2.294V54.737a2.3,2.3,0,0,0-2.294-2.3ZM59.2,36.211a2.106,2.106,0,0,1,2.044,2.621,14.478,14.478,0,0,0-4.089,0A2.106,2.106,0,0,1,59.2,36.211ZM51.46,18.819a1.484,1.484,0,0,1,0,2.958ZM23.6,21.777a1.484,1.484,0,0,1,0-2.958Zm2.02,3.157v-8.99a15.761,15.761,0,0,0,4.259-1.426,15.785,15.785,0,0,0,3.271-2.2A27.3,27.3,0,0,0,37.864,14.6a1.01,1.01,0,1,0,.7-1.9,25.29,25.29,0,0,1-4.642-2.281,1.55,1.55,0,0,0-1.861.166,13.764,13.764,0,0,1-3.087,2.124,13.731,13.731,0,0,1-3.351,1.172V6.969A4.962,4.962,0,0,1,30.586,2.02H44.477A4.962,4.962,0,0,1,49.44,6.969v7.2a25.282,25.282,0,0,1-6.464-.276,1.01,1.01,0,0,0-.344,1.991,27.3,27.3,0,0,0,6.809.313v8.741a11.908,11.908,0,0,1-23.817,0ZM40.7,44.16l1.889-.615v3.143L40.7,46.074a3.3,3.3,0,0,0,0-1.914Zm-1.228-1.725a3.3,3.3,0,0,0-3.889,0l-3.125-1.017a1.536,1.536,0,0,0-.777-.042L30.9,40.6a3.794,3.794,0,0,0,1.4-2.779,13.946,13.946,0,0,0,10.455,0,3.794,3.794,0,0,0,1.394,2.774l-.784.784a1.536,1.536,0,0,0-.768.044Zm-.65,2.681a1.294,1.294,0,1,1-1.294-1.294A1.3,1.3,0,0,1,38.825,45.117Zm-4.467.957-1.889.615V43.545l1.889.615a3.308,3.308,0,0,0,0,1.914Zm7.417,8.663v2.414a42.689,42.689,0,0,1-4.245,4.463A42.63,42.63,0,0,1,25.482,42.673l3.476-1.167L30.449,43v4.357a1.537,1.537,0,0,0,2.012,1.461L35.587,47.8a3.3,3.3,0,0,0,3.889,0L42.6,48.816a1.537,1.537,0,0,0,2.012-1.461V42.988L46.1,41.5l3.173,1.065a14.645,14.645,0,0,0-4.713,9.873h-.488a2.3,2.3,0,0,0-2.293,2.295Zm21.481,5.776a1.317,1.317,0,0,1-1.316,1.316H56.465a1.317,1.317,0,0,1-1.316-1.316V57.968h8.107v2.545ZM74.61,57.672a.274.274,0,0,1-.273.273h-9.06a1.948,1.948,0,0,0-1.942-2H55.071a1.948,1.948,0,0,0-1.942,2h-9.06a.274.274,0,0,1-.273-.273V54.737a.274.274,0,0,1,.273-.275H74.337a.274.274,0,0,1,.273.275v2.935Zm-37.079-4a1.01,1.01,0,1,0,1.01,1.01A1.01,1.01,0,0,0,37.531,53.669ZM31.639,21.223a1.01,1.01,0,0,0-1.01,1.01v2.08a1.01,1.01,0,0,0,2.02,0v-2.08a1.01,1.01,0,0,0-1.01-1.01Zm5.892,28.405a1.01,1.01,0,1,0,1.01,1.01A1.01,1.01,0,0,0,37.531,49.629Zm2.646-19.772a1.01,1.01,0,0,0-1.408-.242,2.13,2.13,0,0,1-2.476,0,1.01,1.01,0,1,0-1.168,1.648,4.545,4.545,0,0,0,2.4.768,4.208,4.208,0,0,0,2.405-.768A1.01,1.01,0,0,0,40.178,29.857Z" transform="translate(-10.505)" fill="#fff"/>
</svg>
