<svg id="svg" xmlns="http://www.w3.org/2000/svg" width="28.71" height="28.71" viewBox="0 0 28.71 28.71">
  <path id="Path_1318" data-name="Path 1318" d="M25.121,14.355H21.532a2.4,2.4,0,0,0-2.392,2.392,2.4,2.4,0,0,1-2.392,2.392H11.962A2.4,2.4,0,0,1,9.57,16.747a2.4,2.4,0,0,0-2.392-2.392H3.589A3.593,3.593,0,0,0,0,17.944v4.785A5.988,5.988,0,0,0,5.981,28.71H22.729a5.988,5.988,0,0,0,5.981-5.981V17.944A3.593,3.593,0,0,0,25.121,14.355Zm1.2,8.374a3.593,3.593,0,0,1-3.589,3.589H5.981a3.593,3.593,0,0,1-3.589-3.589V17.944a1.2,1.2,0,0,1,1.2-1.2l3.589,0v0a4.79,4.79,0,0,0,4.785,4.785h4.785a4.79,4.79,0,0,0,4.785-4.785h3.589a1.2,1.2,0,0,1,1.2,1.2ZM8.724,8.518a1.2,1.2,0,1,1,1.691-1.691L13.159,9.57V1.2a1.2,1.2,0,0,1,2.392,0V9.57l2.743-2.743a1.2,1.2,0,1,1,1.691,1.691l-3.939,3.939a2.384,2.384,0,0,1-1.681.7l-.011,0-.011,0a2.384,2.384,0,0,1-1.681-.7Z" fill="#ff4c15"/>
</svg>
