<svg xmlns="http://www.w3.org/2000/svg" xmlns:xlink="http://www.w3.org/1999/xlink" width="67.745" height="67.753" viewBox="0 0 67.745 67.753">
  <defs>
    <filter id="Path_454" x="0" y="0" width="67.745" height="67.753" filterUnits="userSpaceOnUse">
      <feOffset dy="3" input="SourceAlpha"/>
      <feGaussianBlur stdDeviation="3" result="blur"/>
      <feFlood flood-opacity="0.161"/>
      <feComposite operator="in" in2="blur"/>
      <feComposite in="SourceGraphic"/>
    </filter>
  </defs>
  <g transform="matrix(1, 0, 0, 1, 0, 0)" filter="url(#Path_454)">
    <path id="Path_454-2" data-name="Path 454" d="M44.444,18.218a2.533,2.533,0,0,1-1.432-3.478,6.626,6.626,0,0,0-8.827-8.829,2.535,2.535,0,0,1-3.478-1.432,6.626,6.626,0,0,0-12.479,0,2.533,2.533,0,0,1-3.478,1.432,6.626,6.626,0,0,0-8.84,8.831A2.531,2.531,0,0,1,4.479,18.22a6.628,6.628,0,0,0,0,12.479,2.533,2.533,0,0,1,1.442,3.478,6.624,6.624,0,0,0,8.819,8.831,2.533,2.533,0,0,1,3.478,1.432,6.626,6.626,0,0,0,12.479,0,2.533,2.533,0,0,1,3.478-1.432A6.626,6.626,0,0,0,43,34.181,2.535,2.535,0,0,1,44.436,30.7a6.626,6.626,0,0,0,0-12.479Z" transform="translate(9.41 6.42)" fill="#ff4c15" stroke="#707070" stroke-width="1"/>
  </g>
</svg>
