<svg xmlns="http://www.w3.org/2000/svg" width="7.581" height="14.654" viewBox="0 0 7.581 14.654">
  <g id="Group_811" data-name="Group 811" transform="translate(0 4.517)">
    <circle id="Ellipse_81" data-name="Ellipse 81" cx="1.415" cy="1.415" r="1.415" transform="matrix(0.227, -0.974, 0.974, 0.227, 4.183, -1.76)" fill="#ff4c15"/>
    <path id="Path_2788" data-name="Path 2788" d="M4.9,39.323a6.058,6.058,0,0,0,.269-.851,12.463,12.463,0,0,1,.52,2.764.786.786,0,0,0,.783.726l.061,0a.787.787,0,0,0,.724-.844,12.44,12.44,0,0,0-1.9-5.928q-.007-.056-.012-.112.108-.113.211-.231a7.542,7.542,0,0,0,.784-1.11q.057-.1.109-.2l-.49.1a7.161,7.161,0,0,1-.634.9,7.446,7.446,0,0,1,.055-.78L4.121,34a.629.629,0,0,1-.716-.826l.647-1.836a.629.629,0,1,1,1.187.418l-.28.793.651-.13c.03-.15.06-.293.086-.427a1.57,1.57,0,0,0,.054-.563,1.471,1.471,0,0,1,.386.272.906.906,0,0,1,.267.561.614.614,0,0,1,.383.052A1.3,1.3,0,0,0,6.4,31.44a2.091,2.091,0,0,0-.772-.468.816.816,0,0,0-.53-.485,1.263,1.263,0,0,0-1.01.214c-.077,0-.148,0-.214-.006a2.284,2.284,0,0,0-3.331-.857c-.812.443-.263,1.324,0,1.668a5.457,5.457,0,0,1,1.378-.174,8.943,8.943,0,0,0-1.311.38A4.632,4.632,0,0,0,.179,35.5c.257,1.14.854,1.419,1.449,1.37a2.755,2.755,0,0,1,.056.559A3.286,3.286,0,0,1,1.631,38L2,38.065a3.657,3.657,0,0,0,.058-.638A3.183,3.183,0,0,0,2,36.8a3.5,3.5,0,0,0,.915-.434,2.514,2.514,0,0,0,.641-.117c.053-.016.108-.035.165-.056a5.709,5.709,0,0,1,.049.746,4.834,4.834,0,0,1-.333,1.8,4.527,4.527,0,0,1-1.367,1.83.786.786,0,1,0,1,1.214h0A6.112,6.112,0,0,0,4.9,39.323ZM.883,35.539h0Zm2.4.392q.045-.117.085-.236a1.064,1.064,0,0,0,.15.168l-.075.024C3.387,35.9,3.334,35.918,3.284,35.931Z" transform="translate(0 -31.825)" fill="#ff4c15"/>
    <path id="Path_2789" data-name="Path 2789" d="M56.82,56.594l.353-1a.5.5,0,1,0-.949-.335h0l-.648,1.836a.5.5,0,0,0,.573.661l2.516-.5a.5.5,0,1,0-.2-.987Z" transform="translate(-52.054 -55.699)" fill="#ff4c15"/>
  </g>
</svg>
