<svg xmlns="http://www.w3.org/2000/svg" width="29.665" height="25.957" viewBox="0 0 29.665 25.957">
  <g id="icon" transform="translate(0 -2)">
    <path id="Path_7" data-name="Path 7" d="M22.866,2H6.8A6.806,6.806,0,0,0,0,8.8v9.888a6.8,6.8,0,0,0,3.708,6.048V26.1a1.854,1.854,0,1,0,3.708,0v-.618H22.248V26.1a1.854,1.854,0,1,0,3.708,0V24.734a6.8,6.8,0,0,0,3.708-6.048V8.8A6.805,6.805,0,0,0,22.866,2Zm3.09,16.686a3.094,3.094,0,0,1-3.09,3.09H6.8a3.094,3.094,0,0,1-3.09-3.09V8.8A3.094,3.094,0,0,1,6.8,5.708H22.866a3.094,3.094,0,0,1,3.09,3.09ZM17.3,9.416v8.652A1.236,1.236,0,0,1,16.068,19.3H7.416A1.236,1.236,0,0,1,6.18,18.068V9.416A1.236,1.236,0,0,1,7.416,8.18h8.652A1.236,1.236,0,0,1,17.3,9.416Zm6.18.618V17.45a1.854,1.854,0,0,1-3.708,0V10.034a1.854,1.854,0,1,1,3.708,0Z" fill="#2c6252"/>
  </g>
</svg>
