<svg xmlns="http://www.w3.org/2000/svg" width="25.436" height="25.441" viewBox="0 0 25.436 25.441">
  <path id="Path_2" data-name="Path 2" d="M290.05,606.492h-.783a11.206,11.206,0,0,0-9.118-10.26,2.632,2.632,0,0,0,.213-1.026,2.236,2.236,0,0,0-4.471,0,2.633,2.633,0,0,0,.213,1.026,11.3,11.3,0,0,0-9.217,10.26H266.1a.727.727,0,0,0-.745.725.744.744,0,0,0,.745.745H290.05a.744.744,0,0,0,.745-.745.728.728,0,0,0-.745-.725m-11.923-10.453a.827.827,0,0,1-.746-.833.745.745,0,0,1,1.491,0,.826.826,0,0,1-.745.833m-10.532,14.9a.737.737,0,0,0-.745.745v5.973a.738.738,0,0,0,.745.746h2.235v-7.464Zm20.877-.638a1.49,1.49,0,0,0-2.107,0l-4.268,4.247a2.953,2.953,0,0,1-1.989.862h-2.041a.745.745,0,0,1,0-1.49h2.3a1.5,1.5,0,0,0,1.491-1.491,1.478,1.478,0,0,0-1.491-1.47h-1.49a.863.863,0,0,1-.671-.179,7.9,7.9,0,0,0-.819-.691,5.316,5.316,0,0,0-5.44-.368,1.158,1.158,0,0,0-.621,1.026v7.656c9.478.012,8.611,0,8.668,0a5.921,5.921,0,0,0,4.216-1.747l4.267-4.267a1.467,1.467,0,0,0,0-2.088" transform="translate(-265.359 -592.971)" fill="#fff"/>
</svg>
