<svg xmlns="http://www.w3.org/2000/svg" width="28.707" height="28.708" viewBox="0 0 28.707 28.708">
  <g id="svg" transform="translate(0 0.001)">
    <path id="Path_1317" data-name="Path 1317" d="M10.765,22.726a1.2,1.2,0,1,1,0,2.392H8.373a1.2,1.2,0,0,1,0-2.392ZM28.707,8.972v4.783a2.99,2.99,0,0,1-2.99,2.99H20.932l-3.38,2.185a1.3,1.3,0,0,1-2-1.094l0-8.863a3,3,0,0,1,2.99-2.991h7.177A2.99,2.99,0,0,1,28.707,8.972Zm-2.392,2.989H24.237l-1.486,1.007a1.123,1.123,0,0,1-1.245,0l-1.486-1.007H17.943a2.392,2.392,0,0,0,2.392,2.392h3.588a2.392,2.392,0,0,0,2.392-2.392Zm0-1.2a2.392,2.392,0,0,0-2.392-2.392H20.334a2.392,2.392,0,0,0-2.392,2.392ZM17.942,21.53a1.2,1.2,0,0,0-1.2,1.2,3.593,3.593,0,0,1-3.588,3.588H5.981a3.593,3.593,0,0,1-3.588-3.588v-1.2h9.569a1.2,1.2,0,0,0,0-2.392H2.392V5.981A3.593,3.593,0,0,1,5.981,2.392h7.177a3.572,3.572,0,0,1,2.8,1.346,1.2,1.2,0,0,0,1.867-1.5A5.957,5.957,0,0,0,13.157,0H5.981A5.989,5.989,0,0,0,0,5.981V22.726a5.987,5.987,0,0,0,5.981,5.981h7.177a5.987,5.987,0,0,0,5.981-5.981A1.2,1.2,0,0,0,17.942,21.53Z" transform="translate(0 0)" fill="#f6f6f6"/>
  </g>
</svg>
