<svg xmlns="http://www.w3.org/2000/svg" width="88.554" height="66.738" viewBox="0 0 88.554 66.738">
  <path id="Path_67" data-name="Path 67" d="M101.4,91.52a1.1,1.1,0,0,0-2.073.031c-.636,1.841-3.092,3.282-5.694,4.807a23.954,23.954,0,0,0-5.942,4.332c-2.866,3.261-4.195,6.659-3.948,10.094a13.743,13.743,0,0,0,2.9,7.223,41,41,0,0,0-2.626,8.332A20.92,20.92,0,0,0,81.272,121a13.007,13.007,0,0,0-.074-5.681V97.08a5.126,5.126,0,0,0,4.016-5,5.069,5.069,0,0,0-.287-1.685l7.913-4.88a5.1,5.1,0,1,0-1.161-1.874l-7.913,4.88a5.109,5.109,0,0,0-7.449.108L63.194,81.054a5.119,5.119,0,1,0-9.76,0L40.31,88.63a5.109,5.109,0,0,0-7.449-.108l-7.913-4.88a5.115,5.115,0,1,0-1.156,1.878l7.913,4.88a5.114,5.114,0,0,0,3.73,6.682v15.155a5.118,5.118,0,1,0,4.878,8.45l13.124,7.577a5.119,5.119,0,1,0,9.76,0l8.191-4.729a11.022,11.022,0,0,0,3.032.424,12.13,12.13,0,0,0,5.358-1.281A21.292,21.292,0,0,1,83.148,133a.007.007,0,0,0,0,.006,58.572,58.572,0,0,0,.015,7.09,1.1,1.1,0,0,0,1.1,1.036c.022,0,.046,0,.068,0a1.1,1.1,0,0,0,1.033-1.167,44.95,44.95,0,0,1,3.252-20.948c.211.009.423.015.632.015,6.648,0,11.816-4.3,13.663-11.507,1.216-4.759.709-10.14-1.512-16ZM96.512,79.044A2.914,2.914,0,1,1,93.6,81.958,2.917,2.917,0,0,1,96.512,79.044ZM20.119,84.872a2.914,2.914,0,1,1,2.914-2.914A2.917,2.917,0,0,1,20.119,84.872Zm59.975,4.3a2.914,2.914,0,1,1-2.914,2.914A2.917,2.917,0,0,1,80.094,89.17ZM58.316,76.595A2.914,2.914,0,1,1,55.4,79.509a2.917,2.917,0,0,1,2.914-2.914ZM33.622,92.082A2.914,2.914,0,1,1,36.536,95,2.917,2.917,0,0,1,33.622,92.082Zm2.914,28.064a2.914,2.914,0,1,1,2.914-2.914A2.917,2.917,0,0,1,36.536,120.146Zm21.78,12.573A2.914,2.914,0,1,1,61.23,129.8a2.917,2.917,0,0,1-2.914,2.914Zm3.774-6.366a5.111,5.111,0,0,0-7.552,0l-13.124-7.577a5.117,5.117,0,0,0-3.778-6.543V97.08a5.117,5.117,0,0,0,3.778-6.543l13.124-7.577a5.111,5.111,0,0,0,7.552,0l13.124,7.577a5.118,5.118,0,0,0,3.778,6.543v14.03a14.041,14.041,0,0,0-6.747-4.026A19.1,19.1,0,0,0,58.2,108.793a1.1,1.1,0,0,0,.022,1.92c2.479,1.36,3.39,3.028,4.445,4.959a19.572,19.572,0,0,0,2.363,3.62,14.329,14.329,0,0,0,3.8,3.169Zm4.61-8.5a17.684,17.684,0,0,1-2.1-3.237,13.879,13.879,0,0,0-3.631-4.724,17.194,17.194,0,0,1,10.657-.691c5.24,1.529,7.912,4.856,7.708,9.486a21.979,21.979,0,0,0-4.935-3.772,1.1,1.1,0,1,0-1.09,1.916,19.627,19.627,0,0,1,5.078,4.057c-3.359,1.49-7.891,1.373-11.687-3.035Zm34.074-10.885c-1.564,6.1-5.657,9.677-11.116,9.845a39.057,39.057,0,0,1,5.617-8.138,1.1,1.1,0,1,0-1.646-1.466,41.326,41.326,0,0,0-5.892,8.509c-2.875-4.522-2.339-9.08,1.61-13.571a22.485,22.485,0,0,1,5.4-3.886,22.676,22.676,0,0,0,5.33-3.811,22.935,22.935,0,0,1,.7,12.518Z" transform="translate(-15 -74.39)" fill="#fff"/>
</svg>
