<svg xmlns="http://www.w3.org/2000/svg" width="14.129" height="13.903" viewBox="0 0 14.129 13.903">
  <path id="Path_2764" data-name="Path 2764" d="M13.687,6.956v-1.5a1.415,1.415,0,0,0-1.413-1.413H11.8v-1.9A1.412,1.412,0,0,0,9.866.826L7.681,1.7A4.23,4.23,0,0,0,.5,4.739a4.131,4.131,0,0,0,.045.443A1.061,1.061,0,0,0,.5,5.454V12.99A1.415,1.415,0,0,0,1.913,14.4H12.274a1.415,1.415,0,0,0,1.413-1.413v-1.5a1.411,1.411,0,0,0,.942-1.326V8.282a1.411,1.411,0,0,0-.942-1.326ZM10.214,1.7a.471.471,0,0,1,.647.439v1.9H8.906a4.2,4.2,0,0,0-.6-1.578ZM4.739,1.442a3.3,3.3,0,1,1-3.3,3.3,3.3,3.3,0,0,1,3.3-3.3Zm7.535,12.019H1.913a.471.471,0,0,1-.471-.471l.006-5.614A4.207,4.207,0,0,0,8.953,4.983h3.321a.471.471,0,0,1,.471.471V6.869H11.332A1.415,1.415,0,0,0,9.919,8.282v1.884a1.415,1.415,0,0,0,1.413,1.413h1.413V12.99A.471.471,0,0,1,12.274,13.461Zm1.413-3.295a.471.471,0,0,1-.466.47h0l-.009,0H11.332a.471.471,0,0,1-.471-.471V8.282a.471.471,0,0,1,.471-.471h1.884a.471.471,0,0,1,.471.471Z" transform="translate(-0.5 -0.5)" fill="#fff"/>
</svg>
