<svg id="icon" xmlns="http://www.w3.org/2000/svg" width="69.678" height="55.743" viewBox="0 0 69.678 55.743">
  <path id="Path_78" data-name="Path 78" d="M81.761,74.094l-1.948,1.264a21.939,21.939,0,0,1,2.921,6.789L68.388,87.612a9.16,9.16,0,0,0-2.055-2.621l9.647-14.1q.466.417.913.862a22.258,22.258,0,0,1,2.049,2.362L80.8,72.72a24.622,24.622,0,0,0-2.264-2.61,24.234,24.234,0,0,0-17.245-7.142H48.432A8.14,8.14,0,0,0,40.388,56a1.161,1.161,0,0,0-1.161,1.161V57.6l-2.965-1.482a1.161,1.161,0,0,0-1.681,1.039V57.6l-2.965-1.482a1.161,1.161,0,0,0-1.681,1.039V57.6l-2.965-1.482a1.161,1.161,0,0,0-1.681,1.039V57.6l-2.965-1.482A1.16,1.16,0,0,0,21.807,56H17.162a1.161,1.161,0,0,0-1.039,1.681L17.681,60.8a8.08,8.08,0,0,0,6.827,4.481l.764,1.855a28.912,28.912,0,0,0,3.741,6.521l1.847-1.408a26.59,26.59,0,0,1-3.44-6l-.394-.958H38.458a4.065,4.065,0,1,0,7.343,0H58.969V75.742A6.976,6.976,0,0,1,52,82.71a26.636,26.636,0,0,1-19.728-8.763L30.55,75.5a28.967,28.967,0,0,0,20,9.49c.092.024,9.711.037,9.711.037a5.313,5.313,0,0,1-2.838,2.388l.767,2.192a7.68,7.68,0,0,0,4.459-4.166,6.81,6.81,0,0,1,2.9,2.064,5.389,5.389,0,0,1-4.262,2.168V92a7.671,7.671,0,0,0,5.458-2.329,6.752,6.752,0,0,1,.348,2.143,6.869,6.869,0,0,1-.053.851c-1.624,1.131-4.46.78-5.474.53l-.28,1.127L61.01,95.45a12.893,12.893,0,0,0,2.871.322,10.211,10.211,0,0,0,2.083-.2q-.112.17-.235.333a6.727,6.727,0,0,1-3.551,2.436l-.258.074a7.633,7.633,0,0,0-3.73-2.861l-.767,2.192A5.2,5.2,0,0,1,59.507,99.1l-5.3,1.514a4.6,4.6,0,0,0-1.367.649L42.7,89.427A5.934,5.934,0,0,0,32.259,93.29v1.179h2.323V93.29a3.611,3.611,0,0,1,6.353-2.351l7.027,8.2L42.234,95.32a5.913,5.913,0,0,0-3.29-1h-.75a5.941,5.941,0,0,0-5.934,5.934v5.551a5.941,5.941,0,0,0,5.934,5.934h23.1a24.391,24.391,0,0,0,20.47-37.649ZM43.872,67.032A1.742,1.742,0,1,1,42.13,65.29a1.742,1.742,0,0,1,1.742,1.742Zm-18.92-4.065a5.775,5.775,0,0,1-5.194-3.21l-.718-1.435h2.492l4.4,2.2a1.161,1.161,0,0,0,1.681-1.039V59.04l2.965,1.482a1.161,1.161,0,0,0,1.681-1.039V59.04l2.965,1.482A1.161,1.161,0,0,0,36.9,59.484V59.04l2.965,1.482a1.161,1.161,0,0,0,1.681-1.039V58.439a5.825,5.825,0,0,1,4.529,4.529ZM61.291,75.742V65.29a21.9,21.9,0,0,1,12.874,4.14L64.412,83.687a9.046,9.046,0,0,0-4.1-.977h-2.18A9.268,9.268,0,0,0,61.291,75.742Zm-26.71,30.066v-5.551a3.616,3.616,0,0,1,3.612-3.612h.75a3.6,3.6,0,0,1,2,.606l9.468,6.311-9.2,5.857H38.193A3.616,3.616,0,0,1,34.581,105.808Zm16.258.237v3.375h-5.3Zm2.323,3.375v-4.34a2.33,2.33,0,0,1,1.685-2.232l7.512-2.147,3.313,8.282a22.086,22.086,0,0,1-4.381.438ZM67.939,108.4l-3.4-8.51A9.026,9.026,0,0,0,67.584,97.3q.14-.187.271-.38l10.18,4.79A22.126,22.126,0,0,1,67.939,108.4Zm11.546-8.571L68.9,94.846a9.1,9.1,0,0,0,.288-5.054l13.974-5.324a22.247,22.247,0,0,1,.191,2.888,21.938,21.938,0,0,1-3.872,12.47Z" transform="translate(-16 -56)" fill="#fff"/>
  <path id="Path_79" data-name="Path 79" d="M260.7,173.128c-.36.022-.726.034-1.089.034h-4.576v2.323h4.575c.411,0,.826-.013,1.234-.038Zm6.53-1.723,1.02,2.087a19.826,19.826,0,0,0,3.7-2.35l-1.454-1.811a17.489,17.489,0,0,1-3.267,2.074ZM277,156.832a17.227,17.227,0,0,1-1.723,6.53l2.087,1.02a19.539,19.539,0,0,0,1.954-7.405Zm-3.8-11.975a17.344,17.344,0,0,1,2.96,5.443l2.206-.728a19.66,19.66,0,0,0-3.355-6.169Zm-3.716-6.206a19.581,19.581,0,0,0-6.171-2.3l-.435,2.281a17.265,17.265,0,0,1,5.442,2.03ZM248,136h6.968v2.323H248Z" transform="translate(-214.322 -124.387)" fill="#fff"/>
</svg>
