<svg xmlns="http://www.w3.org/2000/svg" width="20.417" height="15.312" viewBox="0 0 20.417 15.312">
  <g id="icon" transform="translate(0 -3)">
    <path id="Path_9" data-name="Path 9" d="M20.31,16.528l-1.438-3.32h.268a1.276,1.276,0,1,0,0-2.552H17.765l-2.212-5.1h1.034a1.276,1.276,0,1,0,0-2.552H3.828a1.276,1.276,0,0,0,0,2.552H4.861l-2.212,5.1H1.276a1.276,1.276,0,1,0,0,2.552h.268L.105,16.528a1.276,1.276,0,1,0,2.341,1.016l1.879-4.336H16.09l1.879,4.336a1.276,1.276,0,1,0,2.341-1.016ZM5.431,10.656l2.212-5.1h5.13l2.212,5.1Z" transform="translate(0 0)" fill="#fff"/>
  </g>
</svg>
