<svg xmlns="http://www.w3.org/2000/svg" width="25.874" height="25.96" viewBox="0 0 25.874 25.96">
  <g id="icon" transform="translate(-0.179 -0.1)">
    <path id="Path_8" data-name="Path 8" d="M15.382.216A1.086,1.086,0,0,0,14.1,1.284V4.409a8.636,8.636,0,0,0-9.7,9.7H1.277A1.086,1.086,0,0,0,.209,15.389,13.029,13.029,0,1,0,15.382.216ZM13.014,15.192a2.165,2.165,0,0,1-1.871-1.086H8.671a1.086,1.086,0,1,1,0-2.172h2.472a2.172,2.172,0,0,1,.785-.785V7.592a1.086,1.086,0,1,1,2.172,0V11.15a2.165,2.165,0,0,1-1.086,4.042ZM10.812.1A1.086,1.086,0,1,1,9.726,1.186,1.086,1.086,0,0,1,10.812.1ZM6.36,2.007A1.086,1.086,0,1,1,5.275,3.092,1.086,1.086,0,0,1,6.36,2.007ZM3,5.248A1.086,1.086,0,1,1,1.916,6.333,1.086,1.086,0,0,1,3,5.248ZM1.265,9.772A1.086,1.086,0,1,1,.179,10.858,1.086,1.086,0,0,1,1.265,9.772Z" fill="#2c6252"/>
  </g>
</svg>
