<svg id="icon" xmlns="http://www.w3.org/2000/svg" width="52.398" height="66.067" viewBox="0 0 52.398 66.067">
  <path id="Path_68" data-name="Path 68" d="M53.146,69.067H16.7a5.7,5.7,0,0,1-5.7-5.7V58.815a1.142,1.142,0,0,1,1.139-1.139h2.278a1.057,1.057,0,0,0,.786-.33,1.123,1.123,0,0,0,.353-.809A1.142,1.142,0,0,0,14.417,55.4H12.139A1.142,1.142,0,0,1,11,54.259V45.146a1.142,1.142,0,0,1,1.139-1.139h2.278a1.057,1.057,0,0,0,.786-.33,1.123,1.123,0,0,0,.353-.809,1.142,1.142,0,0,0-1.139-1.139H12.139A1.142,1.142,0,0,1,11,40.59V31.477a1.142,1.142,0,0,1,1.139-1.139h2.278a1.058,1.058,0,0,0,.786-.33,1.123,1.123,0,0,0,.353-.809,1.142,1.142,0,0,0-1.139-1.139H12.139A1.142,1.142,0,0,1,11,26.921V17.808a1.142,1.142,0,0,1,1.139-1.139h2.278a1.058,1.058,0,0,0,.786-.33,1.123,1.123,0,0,0,.353-.809,1.142,1.142,0,0,0-1.139-1.139H12.139A1.142,1.142,0,0,1,11,13.252V8.7A5.7,5.7,0,0,1,16.7,3H53.146a5.7,5.7,0,0,1,5.7,5.7V63.372A5.7,5.7,0,0,1,53.146,69.067ZM13.278,59.954v3.417A3.427,3.427,0,0,0,16.7,66.789H53.146a3.427,3.427,0,0,0,3.417-3.417V8.7a3.427,3.427,0,0,0-3.417-3.417H16.7A3.427,3.427,0,0,0,13.278,8.7v3.417h1.139a3.427,3.427,0,0,1,3.417,3.417,3.384,3.384,0,0,1-1.014,2.426,3.319,3.319,0,0,1-2.4.991H13.278v6.835h1.139A3.427,3.427,0,0,1,17.835,29.2a3.384,3.384,0,0,1-1.014,2.426,3.319,3.319,0,0,1-2.4.991H13.278v6.835h1.139a3.427,3.427,0,0,1,3.417,3.417,3.384,3.384,0,0,1-1.014,2.426,3.319,3.319,0,0,1-2.4.991H13.278V53.12h1.139a3.427,3.427,0,0,1,3.417,3.417,3.384,3.384,0,0,1-1.014,2.426,3.319,3.319,0,0,1-2.4.991Z" transform="translate(-6.444 -3)" fill="#fff"/>
  <path id="Path_69" data-name="Path 69" d="M14.974,58.842H10.417A3.427,3.427,0,0,1,7,55.424,3.384,3.384,0,0,1,8.014,53a3.319,3.319,0,0,1,2.4-.991h4.556a3.427,3.427,0,0,1,3.417,3.417,3.384,3.384,0,0,1-1.014,2.426,3.319,3.319,0,0,1-2.4.991Zm-4.556-4.556a1.058,1.058,0,0,0-.786.33,1.128,1.128,0,0,0,.786,1.948h4.556a1.057,1.057,0,0,0,.786-.33,1.123,1.123,0,0,0,.353-.809,1.142,1.142,0,0,0-1.139-1.139Zm4.556-36.451H10.417A3.427,3.427,0,0,1,7,14.417a3.384,3.384,0,0,1,1.014-2.426,3.319,3.319,0,0,1,2.4-.991h4.556a3.427,3.427,0,0,1,3.417,3.417,3.384,3.384,0,0,1-1.014,2.426,3.319,3.319,0,0,1-2.4.991Zm-4.556-4.556a1.058,1.058,0,0,0-.786.33,1.128,1.128,0,0,0,.786,1.948h4.556a1.058,1.058,0,0,0,.786-.33,1.123,1.123,0,0,0,.353-.809,1.142,1.142,0,0,0-1.139-1.139Zm4.556,31.894H10.417A3.427,3.427,0,0,1,7,41.755a3.384,3.384,0,0,1,1.014-2.426,3.319,3.319,0,0,1,2.4-.991h4.556a3.427,3.427,0,0,1,3.417,3.417,3.384,3.384,0,0,1-1.014,2.426,3.319,3.319,0,0,1-2.4.991Zm-4.556-4.556a1.057,1.057,0,0,0-.786.33,1.128,1.128,0,0,0,.786,1.948h4.556a1.058,1.058,0,0,0,.786-.33,1.123,1.123,0,0,0,.353-.809,1.142,1.142,0,0,0-1.139-1.139ZM14.974,31.5H10.417A3.427,3.427,0,0,1,7,28.086,3.384,3.384,0,0,1,8.014,25.66a3.319,3.319,0,0,1,2.4-.991h4.556a3.427,3.427,0,0,1,3.417,3.417,3.384,3.384,0,0,1-1.014,2.426,3.319,3.319,0,0,1-2.4.991Zm-4.556-4.556a1.058,1.058,0,0,0-.786.33,1.128,1.128,0,0,0,.786,1.948h4.556a1.058,1.058,0,0,0,.786-.33,1.123,1.123,0,0,0,.353-.809,1.142,1.142,0,0,0-1.139-1.139Zm37.59,5.7H22.947A1.142,1.142,0,0,1,21.808,31.5,13.656,13.656,0,0,1,32.994,18.062a13.992,13.992,0,0,1,4.966,0A13.656,13.656,0,0,1,49.146,31.5,1.142,1.142,0,0,1,48.007,32.643ZM24.143,30.364H46.811a11.387,11.387,0,0,0-9.261-10.07,11.528,11.528,0,0,0-4.146,0,11.375,11.375,0,0,0-9.261,10.07Z" transform="translate(-7 -1.887)" fill="#fff"/>
  <path id="Path_70" data-name="Path 70" d="M50.033,32.364H18.139a1.139,1.139,0,1,1,0-2.278H50.033a1.139,1.139,0,1,1,0,2.278ZM36.364,20.04a.631.631,0,0,1-.205-.023,11.528,11.528,0,0,0-4.146,0A1.13,1.13,0,0,1,30.669,18.9V16.417A3.427,3.427,0,0,1,34.086,13a3.384,3.384,0,0,1,2.426,1.014,3.319,3.319,0,0,1,.991,2.4V18.9a1.13,1.13,0,0,1-1.139,1.139Zm-2.278-2.483c.387,0,.763.011,1.139.046V16.417a1.057,1.057,0,0,0-.33-.786,1.128,1.128,0,0,0-1.948.786V17.6C33.323,17.568,33.7,17.556,34.086,17.556Zm11.391,26.2H22.7a3.417,3.417,0,1,1,0-6.835H45.477a3.417,3.417,0,1,1,0,6.835ZM22.7,39.2a1.139,1.139,0,1,0,0,2.278H45.477a1.139,1.139,0,0,0,0-2.278ZM45.477,55.146H22.7a3.417,3.417,0,1,1,0-6.835H45.477a3.417,3.417,0,1,1,0,6.835ZM22.7,50.59a1.139,1.139,0,1,0,0,2.278H45.477a1.139,1.139,0,0,0,0-2.278Z" transform="translate(-5.609 -1.609)" fill="#fff"/>
</svg>
