<svg id="icon" xmlns="http://www.w3.org/2000/svg" width="52.151" height="63.102" viewBox="0 0 52.151 63.102">
  <path id="Path_80" data-name="Path 80" d="M160.595,58.541a1.052,1.052,0,0,0,1.17-.918,13.935,13.935,0,1,0-2.384,6.257,1.052,1.052,0,0,0-1.727-1.2,11.832,11.832,0,1,1,2.023-5.308A1.052,1.052,0,0,0,160.595,58.541Z" transform="translate(-121.856 -36.479)" fill="#fff"/>
  <path id="Path_81" data-name="Path 81" d="M117.817,48.375h-.224V37.923a19.468,19.468,0,1,0-6.718.981,1.052,1.052,0,1,0,.061-2.1,17.336,17.336,0,1,1,5.315-.664,1.052,1.052,0,0,0-.761,1.011V49.427a1.052,1.052,0,0,0,1.052,1.052h1.276a.6.6,0,0,1,.495.936l-6.365,9.323a.6.6,0,0,1-.989,0l-6.365-9.323a.6.6,0,0,1,.495-.936h1.276a1.052,1.052,0,0,0,1.052-1.052V42.878a1.052,1.052,0,1,0-2.1,0v5.5h-.224a2.7,2.7,0,0,0-2.232,4.226l6.365,9.323a2.7,2.7,0,0,0,4.463,0l6.365-9.323a2.7,2.7,0,0,0-2.232-4.226Z" transform="translate(-85.376 0)" fill="#fff"/>
  <path id="Path_82" data-name="Path 82" d="M53.356,110.639v-6.42a1.052,1.052,0,1,0-2.1,0v7.374a1.052,1.052,0,0,0,1.052,1.052h.337a.525.525,0,0,1,.434.822l-4.181,6.124a.525.525,0,0,1-.869,0l-4.181-6.124a.526.526,0,0,1,.434-.822h.337a1.052,1.052,0,0,0,1.052-1.052V94.222a1.052,1.052,0,1,0-2.1,0v16.417a2.631,2.631,0,0,0-1.457,4.014l4.181,6.124a2.63,2.63,0,0,0,4.343,0l4.181-6.124A2.631,2.631,0,0,0,53.356,110.639Zm38.526,0V94.222a1.052,1.052,0,1,0-2.1,0v17.37a1.052,1.052,0,0,0,1.052,1.052h.337a.526.526,0,0,1,.434.822l-4.181,6.124a.525.525,0,0,1-.869,0l-4.181-6.124a.525.525,0,0,1,.434-.822h.337a1.052,1.052,0,0,0,1.052-1.052v-7.374a1.052,1.052,0,0,0-2.1,0v6.42a2.631,2.631,0,0,0-1.457,4.014l4.181,6.124a2.63,2.63,0,0,0,4.343,0l4.181-6.124a2.631,2.631,0,0,0-1.457-4.014ZM67.724,96.325a1.052,1.052,0,0,0,1.052-1.052V93.865c2.319-.4,4.065-2.077,4.065-4.082,0-3.155-2.84-3.731-4.913-4.151-2.461-.5-3.228-.852-3.228-2.09,0-1.121,1.382-2.069,3.019-2.069A3.389,3.389,0,0,1,70.4,82.6a1.052,1.052,0,1,0,1.669-1.28,5.189,5.189,0,0,0-3.289-1.865V78.052a1.052,1.052,0,0,0-2.1,0v1.406c-2.324.395-4.075,2.076-4.075,4.084,0,3.155,2.84,3.731,4.913,4.151,2.461.5,3.228.852,3.228,2.09,0,1.121-1.382,2.069-3.019,2.069a3.389,3.389,0,0,1-2.677-1.13A1.052,1.052,0,1,0,63.372,92a5.193,5.193,0,0,0,3.3,1.867v1.405A1.052,1.052,0,0,0,67.724,96.325Z" transform="translate(-41.648 -66.877)" fill="#fff"/>
</svg>
